# xmcd
#
# Track frame offsets:
#	150
#	13975
#	23475
#	41450
#	56575
#	66025
#	78250
#	92025
#	105450
#	122700
#
# Disc length: 1696 seconds
#
# Revision: 0
# Processed by: cddbd v1.5.2PL0 Copyright (c) Steve Scherf et al.
# Submitted via: EasyCDDAExtractor 10.5.1.1
#
DISCID=73069e0a
DTITLE=Joe Bonson - Men Like That
DYEAR=2000
DGENRE=Bluegrass
TTITLE0=Men Like That
TTITLE1=Gonna Be Moving
TTITLE2=Where Could I Go
TTITLE3=Family Tree
TTITLE4=Servant's Prayer
TTITLE5=Simple Things
TTITLE6=Roses Will Bloom Again
TTITLE7=Who Cares
TTITLE8=Grandpa Was A Farmer
TTITLE9=Don't Overlook Your Blessing
EXTD=
EXTT0=
EXTT1=
EXTT2=
EXTT3=
EXTT4=
EXTT5=
EXTT6=
EXTT7=
EXTT8=
EXTT9=
PLAYORDER=
